<?xml version="1.0" standalone="no"?>
<!DOCTYPE svg PUBLIC "-//W3C//DTD SVG 20010904//EN"
 "http://www.w3.org/TR/2001/REC-SVG-20010904/DTD/svg10.dtd">
<svg version="1.0" xmlns="http://www.w3.org/2000/svg"
 width="300.000000pt" height="225.000000pt" viewBox="0 0 300.000000 225.000000"
 preserveAspectRatio="xMidYMid meet">
<metadata>
Created by potrace 1.10, written by Peter Selinger 2001-2011
</metadata>
<g transform="translate(0.000000,225.000000) scale(0.100000,-0.100000)"
fill="#000000" stroke="none">
<path d="M1965 1650 c-11 -4 -31 -19 -43 -33 -23 -24 -23 -25 -4 -31 11 -4 26
-14 34 -24 12 -15 11 -15 -14 1 -15 9 -33 17 -40 17 -7 0 1 -9 18 -20 40 -26
58 -18 79 32 19 48 6 72 -30 58z"/>
<path d="M1430 1628 c-27 -19 -65 -87 -209 -369 -97 -190 -183 -354 -191 -364
-8 -10 -28 -26 -43 -35 -27 -17 -24 -17 110 -12 149 5 178 13 211 59 25 36
194 374 189 379 -12 12 -44 -37 -110 -166 -104 -206 -105 -208 -146 -229 -22
-12 -158 -17 -169 -6 -3 3 18 51 47 108 29 56 104 204 167 328 62 125 125 240
139 257 28 33 77 49 119 38 13 -3 38 -24 56 -45 l31 -40 -60 -120 -60 -120 30
-67 31 -67 22 39 c12 21 45 74 74 116 29 42 52 82 52 88 0 25 -103 201 -131
225 -41 34 -112 35 -159 3z m234 -180 c9 -17 16 -38 16 -46 0 -20 -89 -152
-102 -152 -16 0 -37 32 -38 58 0 12 12 46 26 75 55 108 72 119 98 65z"/>
<path d="M1823 1478 c-33 -46 -96 -136 -139 -202 l-79 -118 30 -25 29 -25 23
28 c25 32 30 49 11 38 -9 -5 -9 -2 1 9 15 19 26 23 15 5 -4 -7 -3 -8 5 -4 6 4
10 15 9 24 -2 9 4 17 12 17 8 0 14 8 14 18 -1 9 2 15 6 12 4 -2 18 10 31 28
52 70 160 230 157 232 -2 1 -12 5 -23 9 -22 6 -50 -26 -189 -216 -43 -60 -80
-108 -82 -108 -8 0 155 239 226 333 12 15 18 27 13 27 -5 0 -36 -37 -70 -82z"/>
<path d="M1725 1137 c-38 -56 -71 -107 -73 -114 -6 -21 57 -132 85 -150 21
-14 58 -19 168 -24 77 -4 142 -5 144 -3 2 2 -8 8 -21 13 -37 14 -55 41 -143
219 -44 89 -82 161 -85 161 -3 0 -36 -46 -75 -102z m149 -112 c36 -71 63 -132
60 -137 -9 -14 -133 -9 -164 7 -32 16 -80 90 -80 121 0 26 100 158 111 147 5
-5 38 -67 73 -138z"/>
<path d="M1586 1132 c-7 -12 52 -58 61 -48 4 3 4 7 2 9 -2 1 -16 12 -30 25
-16 14 -29 19 -33 14z"/>
<path d="M1544 1078 c-24 -27 -25 -29 -4 -13 l25 20 -19 -22 c-10 -13 -23 -20
-27 -17 -5 3 -17 0 -26 -6 -17 -11 -17 -11 0 -6 11 3 15 2 12 -4 -3 -6 -12
-10 -20 -10 -8 0 -16 -12 -18 -27 -3 -22 -4 -21 -3 5 1 17 -2 32 -6 32 -4 0
-9 -25 -10 -55 -1 -30 -2 -65 -2 -77 -1 -13 -7 -27 -13 -31 -7 -4 -13 -13 -13
-19 0 -6 10 -2 23 9 28 26 73 49 114 58 32 6 33 7 30 60 -1 34 3 59 11 67 11
11 12 9 7 -7 -3 -11 1 -7 11 10 12 20 13 30 5 33 -6 2 -18 10 -25 18 -19 18
-18 19 -52 -18z m-9 -88 c3 -5 -15 -31 -41 -57 l-47 -48 32 48 c18 26 29 47
26 47 -3 0 -3 5 0 10 8 13 22 13 30 0z"/>
<path d="M1622 749 c-19 -7 -23 -15 -20 -41 3 -28 8 -34 43 -44 29 -8 40 -16
40 -30 0 -26 -41 -31 -66 -8 -25 23 -37 10 -14 -16 33 -36 105 -19 105 24 0
29 -15 41 -57 51 -23 5 -33 12 -33 26 0 15 7 19 30 19 18 0 33 -6 36 -15 8
-19 24 -20 24 -1 0 16 -37 46 -55 45 -5 0 -20 -4 -33 -10z"/>
<path d="M985 678 c-16 -39 -31 -75 -33 -80 -2 -4 2 -8 8 -8 7 0 14 9 17 20 4
16 14 20 48 20 35 0 44 -4 48 -21 3 -12 10 -18 16 -15 12 8 -48 156 -63 156
-6 0 -24 -32 -41 -72z m65 -15 c0 -7 -11 -13 -25 -13 -29 0 -28 -2 -14 40 l12
33 13 -24 c7 -13 13 -30 14 -36z"/>
<path d="M1112 673 l3 -78 48 -3 c28 -2 47 1 47 7 0 6 -19 11 -41 11 l-42 0 7
70 c6 60 5 70 -9 70 -13 0 -15 -12 -13 -77z"/>
<path d="M1325 693 c-32 -71 -40 -103 -27 -103 5 0 12 9 15 20 4 16 14 20 45
20 32 0 42 -4 47 -20 6 -18 25 -29 25 -14 0 17 -63 154 -71 154 -5 0 -21 -26
-34 -57z m53 -15 c11 -27 11 -28 -19 -28 -26 0 -30 3 -24 18 4 9 10 25 12 35
6 21 14 14 31 -25z"/>
<path d="M1450 670 c0 -91 17 -109 22 -23 l3 57 39 -57 c22 -31 43 -57 48 -57
4 0 8 36 8 80 0 91 -17 109 -22 23 l-3 -57 -39 57 c-22 31 -43 57 -48 57 -4 0
-8 -36 -8 -80z"/>
<path d="M1756 683 c-16 -38 -30 -74 -33 -80 -3 -7 0 -13 7 -13 6 0 14 9 17
20 8 30 78 28 94 -2 8 -14 14 -18 16 -11 6 18 -50 153 -63 153 -6 0 -23 -30
-38 -67z m58 -10 c6 -20 4 -23 -18 -23 -29 0 -31 7 -14 45 12 27 19 23 32 -22z"/>
<path d="M1880 670 c0 -47 4 -80 10 -80 6 0 10 16 10 35 0 28 4 35 19 35 11 0
28 -15 41 -35 12 -19 26 -35 31 -35 14 0 11 15 -10 42 -20 24 -20 25 0 41 43
38 17 77 -53 77 l-48 0 0 -80z m95 35 c0 -16 -8 -21 -37 -23 -35 -3 -38 -1
-38 23 0 24 3 26 38 23 29 -2 37 -7 37 -23z"/>
<path d="M2020 670 c0 -47 4 -80 10 -80 6 0 10 33 10 80 0 47 -4 80 -10 80 -6
0 -10 -33 -10 -80z"/>
<path d="M1215 660 c-4 -6 8 -10 29 -10 20 0 36 5 36 10 0 6 -13 10 -29 10
-17 0 -33 -4 -36 -10z"/>
</g>
</svg>
